inDegrees=yes
name=ik_FinalMotion
DataType=double
version=3
OpenSimVersion=4.4-2022-07-23-0e9fedc
endheader
time	pelvis_tilt	pelvis_list	pelvis_rotation	pelvis_tx	pelvis_ty	pelvis_tz	hip_flexion_l	hip_adduction_l	hip_rotation_l	knee_angle_l	ankle_angle_l	subtalar_angle_l	mtp_angle_l
0.03	0	0	0	0	0	0	0	0	0	0	-0.214345326	0.327684137	0
0.06	0	0	0	0	0	0	0	0	0	0	-0.253870501	0.408234627	0
0.09	0	0	0	0	0	0	0	0	0	0	-0.314229897	0.530665843	0
0.12	0	0	0	0	0	0	0	0	0	0	-0.368140442	0.618142811	0
0.15	0	0	0	0	0	0	0	0	0	0	-0.516372554	0.805420124	0
0.18	0	0	0	0	0	0	0	0	0	0	-0.699840625	0.945497817	0
0.21	0	0	0	0	0	0	0	0	0	0	-0.866968061	0.97456777	0
0.24	0	0	0	0	0	0	0	0	0	0	-0.933896799	0.969913647	0
0.27	0	0	0	0	0	0	0	0	0	0	-1.006298278	0.942421602	0
0.3	0	0	0	0	0	0	0	0	0	0	-1.007845937	0.918121213	0
0.33	0	0	0	0	0	0	0	0	0	0	-0.982511591	0.9181763	0
0.36	0	0	0	0	0	0	0	0	0	0	-0.957434867	0.915515311	0
0.39	0	0	0	0	0	0	0	0	0	0	-0.898111862	0.881367224	0
0.42	0	0	0	0	0	0	0	0	0	0	-0.820437765	0.842927736	0
0.45	0	0	0	0	0	0	0	0	0	0	-0.775867626	0.847245934	0
0.48	0	0	0	0	0	0	0	0	0	0	-0.684369033	0.828661311	0
0.51	0	0	0	0	0	0	0	0	0	0	-0.538498989	0.759007313	0
0.54	0	0	0	0	0	0	0	0	0	0	-0.37935776	0.654528212	0
0.57	0	0	0	0	0	0	0	0	0	0	-0.324295795	0.608106737	0
0.6	0	0	0	0	0	0	0	0	0	0	-0.24655979	0.521851368	0
0.63	0	0	0	0	0	0	0	0	0	0	-0.230447755	0.486537719	0
0.66	0	0	0	0	0	0	0	0	0	0	-0.235353299	0.414497268	0
0.69	0	0	0	0	0	0	0	0	0	0	-0.261974603	0.385944515	0
0.72	0	0	0	0	0	0	0	0	0	0	-0.287868483	0.411906858	0
0.75	0	0	0	0	0	0	0	0	0	0	-0.299491817	0.440299482	0
0.78	0	0	0	0	0	0	0	0	0	0	-0.340274036	0.472530719	0
0.81	0	0	0	0	0	0	0	0	0	0	-0.358422159	0.477538626	0
0.84	0	0	0	0	0	0	0	0	0	0	-0.369797067	0.498697216	0
0.87	0	0	0	0	0	0	0	0	0	0	-0.369797067	0.498697216	0
0.9	0	0	0	0	0	0	0	0	0	0	-0.364766192	0.49243751	0
0.93	0	0	0	0	0	0	0	0	0	0	-0.318360165	0.498073757	0
0.96	0	0	0	0	0	0	0	0	0	0	-0.318360165	0.498073757	0
0.99	0	0	0	0	0	0	0	0	0	0	-0.322788374	0.501097416	0
1.02	0	0	0	0	0	0	0	0	0	0	-0.328630403	0.499281505	0
1.05	0	0	0	0	0	0	0	0	0	0	-0.32614238	0.493151803	0
1.08	0	0	0	0	0	0	0	0	0	0	-0.322804705	0.46803441	0
1.11	0	0	0	0	0	0	0	0	0	0	-0.332295296	0.449914365	0
1.14	0	0	0	0	0	0	0	0	0	0	-0.332295296	0.449914365	0
1.17	0	0	0	0	0	0	0	0	0	0	-0.378103395	0.425145332	0
1.2	0	0	0	0	0	0	0	0	0	0	-0.456163265	0.375662776	0
1.23	0	0	0	0	0	0	0	0	0	0	-0.541750771	0.337739063	0
1.3	0	0	0	0	0	0	0	0	0	0	-0.533630589	0.332336564	0
1.42	0	0	0	0	0	0	0	0	0	0	-0.575683454	0.321504988	0
1.55	0	0	0	0	0	0	0	0	0	0	-0.785129417	0.399842146	0
1.66	0	0	0	0	0	0	0	0	0	0	-1.851601717	0.514654355	0
1.78	0	0	0	0	0	0	0	0	0	0	-3.63191286	0.525877846	0
1.91	0	0	0	0	0	0	0	0	0	0	-4.684674017	0.395221322	0
2.03	0	0	0	0	0	0	0	0	0	0	-5.333293663	0.50604204	0
2.14	0	0	0	0	0	0	0	0	0	0	-5.313973946	0.68388854	0
2.26	0	0	0	0	0	0	0	0	0	0	-6.77474193	0.689379211	0
2.39	0	0	0	0	0	0	0	0	0	0	-10.6291675	0.647449344	0
2.51	0	0	0	0	0	0	0	0	0	0	-11.14029115	0.547256457	0
2.63	0	0	0	0	0	0	0	0	0	0	-11.3818471	0.292843307	0
2.74	0	0	0	0	0	0	0	0	0	0	-11.75385614	0.364787535	0
2.86	0	0	0	0	0	0	0	0	0	0	-12.31669506	1.010155055	0
2.98	0	0	0	0	0	0	0	0	0	0	-14.01578582	1.264660402	0
3.1	0	0	0	0	0	0	0	0	0	0	-15.4258596	1.478479987	0
3.23	0	0	0	0	0	0	0	0	0	0	-15.91657786	1.831586643	0
3.34	0	0	0	0	0	0	0	0	0	0	-16.4436377	1.561378327	0
3.46	0	0	0	0	0	0	0	0	0	0	-16.83999053	1.173552917	0
3.59	0	0	0	0	0	0	0	0	0	0	-17.7915959	1.305060825	0
3.7	0	0	0	0	0	0	0	0	0	0	-18.41163868	1.370511217	0
3.88	0	0	0	0	0	0	0	0	0	0	-18.28444178	1.651506057	0
4	0	0	0	0	0	0	0	0	0	0	-19.307177	1.578640083	0
4.18	0	0	0	0	0	0	0	0	0	0	-18.77994712	1.759944034	0
4.31	0	0	0	0	0	0	0	0	0	0	-14.17954343	2.182713686	0
4.42	0	0	0	0	0	0	0	0	0	0	-13.44111234	1.711449653	0
4.54	0	0	0	0	0	0	0	0	0	0	-12.62962276	1.761058946	0
4.66	0	0	0	0	0	0	0	0	0	0	-9.735581071	2.131807495	0
4.78	0	0	0	0	0	0	0	0	0	0	-7.325948313	2.112346556	0
4.9	0	0	0	0	0	0	0	0	0	0	-5.854666417	2.279234167	0
5.03	0	0	0	0	0	0	0	0	0	0	-5.282921306	2.483288452	0
5.15	0	0	0	0	0	0	0	0	0	0	-3.782333351	2.440015384	0
5.26	0	0	0	0	0	0	0	0	0	0	-2.438784165	2.700877666	0
5.38	0	0	0	0	0	0	0	0	0	0	-0.943096923	2.881969826	0
5.5	0	0	0	0	0	0	0	0	0	0	0.057740543	3.101676016	0
5.63	0	0	0	0	0	0	0	0	0	0	1.110839607	3.065467079	0
5.75	0	0	0	0	0	0	0	0	0	0	2.992078296	3.028691928	0
5.86	0	0	0	0	0	0	0	0	0	0	3.827757764	2.842717209	0
5.98	0	0	0	0	0	0	0	0	0	0	4.877783336	2.609788504	0
6.1	0	0	0	0	0	0	0	0	0	0	5.686692704	2.319244367	0
6.22	0	0	0	0	0	0	0	0	0	0	6.598422749	2.13578206	0
6.34	0	0	0	0	0	0	0	0	0	0	7.550971536	2.152132364	0
6.46	0	0	0	0	0	0	0	0	0	0	7.984227749	2.086580613	0
6.59	0	0	0	0	0	0	0	0	0	0	8.539308565	1.955728837	0
6.7	0	0	0	0	0	0	0	0	0	0	8.677462283	1.742527014	0
6.83	0	0	0	0	0	0	0	0	0	0	8.53414534	1.454326686	0
6.94	0	0	0	0	0	0	0	0	0	0	8.246921142	1.201049308	0
7.07	0	0	0	0	0	0	0	0	0	0	7.627538426	0.972737671	0
7.19	0	0	0	0	0	0	0	0	0	0	4.89128461	0.671960791	0
7.3	0	0	0	0	0	0	0	0	0	0	3.324166579	0.820161656	0
7.42	0	0	0	0	0	0	0	0	0	0	3.449419006	0.322877226	0
7.55	0	0	0	0	0	0	0	0	0	0	2.866661418	0.11104795	0
7.67	0	0	0	0	0	0	0	0	0	0	-0.305254238	-0.043233571	0
7.78	0	0	0	0	0	0	0	0	0	0	-0.734540002	0.200793046	0
7.9	0	0	0	0	0	0	0	0	0	0	-2.177688234	0.62767707	0
8.02	0	0	0	0	0	0	0	0	0	0	-3.951746513	1.013906728	0
8.15	0	0	0	0	0	0	0	0	0	0	-7.980979092	1.481613747	0
8.26	0	0	0	0	0	0	0	0	0	0	-8.701507295	1.498037619	0
8.39	0	0	0	0	0	0	0	0	0	0	-12.0381194	1.06642657	0
8.5	0	0	0	0	0	0	0	0	0	0	-15.6338228	1.306243755	0
8.63	0	0	0	0	0	0	0	0	0	0	-18.30499877	2.198234945	0
8.75	0	0	0	0	0	0	0	0	0	0	-19.24275639	2.857609393	0
8.86	0	0	0	0	0	0	0	0	0	0	-21.23579654	2.660611388	0
8.98	0	0	0	0	0	0	0	0	0	0	-22.88641025	2.999184667	0
9.1	0	0	0	0	0	0	0	0	0	0	-22.73665902	2.813039562	0
9.23	0	0	0	0	0	0	0	0	0	0	-22.02829927	2.792485877	0
9.34	0	0	0	0	0	0	0	0	0	0	-19.51211572	1.966178855	0
9.46	0	0	0	0	0	0	0	0	0	0	-14.28237275	1.888133688	0
9.58	0	0	0	0	0	0	0	0	0	0	-8.202252738	2.38524664	0
9.7	0	0	0	0	0	0	0	0	0	0	-4.315168656	2.414887808	0
9.82	0	0	0	0	0	0	0	0	0	0	-0.778137513	3.186604005	0
9.95	0	0	0	0	0	0	0	0	0	0	0.984987596	3.356957558	0
10.06	0	0	0	0	0	0	0	0	0	0	3.353087778	3.913294199	0
10.18	0	0	0	0	0	0	0	0	0	0	3.720543371	6.104317216	0
10.3	0	0	0	0	0	0	0	0	0	0	3.754159469	9.539873737	0
10.42	0	0	0	0	0	0	0	0	0	0	4.544704948	11.98807458	0
10.55	0	0	0	0	0	0	0	0	0	0	4.978702932	13.91614535	0
10.66	0	0	0	0	0	0	0	0	0	0	4.426743644	14.67173189	0
10.78	0	0	0	0	0	0	0	0	0	0	4.22383605	14.56845914	0
10.9	0	0	0	0	0	0	0	0	0	0	5.058966691	12.33549776	0
11.02	0	0	0	0	0	0	0	0	0	0	5.579098191	8.97210056	0
11.15	0	0	0	0	0	0	0	0	0	0	4.276238714	2.598650416	0
11.26	0	0	0	0	0	0	0	0	0	0	3.501115052	-0.109058667	0
11.38	0	0	0	0	0	0	0	0	0	0	2.321387868	-3.457710403	0
11.5	0	0	0	0	0	0	0	0	0	0	0.877556593	-8.351255866	0
11.62	0	0	0	0	0	0	0	0	0	0	-0.131248515	-11.99438403	0
11.8	0	0	0	0	0	0	0	0	0	0	-1.515536984	-15.31332379	0
11.92	0	0	0	0	0	0	0	0	0	0	-3.073430311	-18.45158476	0
12.04	0	0	0	0	0	0	0	0	0	0	-3.432260107	-19.50065015	0
12.16	0	0	0	0	0	0	0	0	0	0	-3.759366775	-19.62194924	0
12.28	0	0	0	0	0	0	0	0	0	0	-3.35383733	-17.69180524	0
12.46	0	0	0	0	0	0	0	0	0	0	-1.520726202	-11.66554935	0
12.58	0	0	0	0	0	0	0	0	0	0	0.172125173	0.518361777	0
12.7	0	0	0	0	0	0	0	0	0	0	0.642736183	2.150936363	0
12.82	0	0	0	0	0	0	0	0	0	0	-0.842599955	2.049651457	0
12.95	0	0	0	0	0	0	0	0	0	0	-2.440547089	2.414212745	0
13.06	0	0	0	0	0	0	0	0	0	0	-2.563491028	2.704504113	0
13.19	0	0	0	0	0	0	0	0	0	0	-3.702668318	3.649493944	0
13.3	0	0	0	0	0	0	0	0	0	0	-7.395022026	4.447885379	0
13.42	0	0	0	0	0	0	0	0	0	0	-9.628531003	4.183941051	0
13.54	0	0	0	0	0	0	0	0	0	0	-12.87747398	3.791202501	0
13.66	0	0	0	0	0	0	0	0	0	0	-15.9772752	3.305230974	0
13.79	0	0	0	0	0	0	0	0	0	0	-17.08576615	4.271091466	0
13.91	0	0	0	0	0	0	0	0	0	0	-17.76100242	5.241304991	0
14.02	0	0	0	0	0	0	0	0	0	0	-18.71776629	6.345706463	0
14.14	0	0	0	0	0	0	0	0	0	0	-20.42563602	6.216581333	0
14.27	0	0	0	0	0	0	0	0	0	0	-21.77945372	6.074231602	0
14.38	0	0	0	0	0	0	0	0	0	0	-24.2193613	5.282983796	0
14.5	0	0	0	0	0	0	0	0	0	0	-25.26374009	4.91628893	0
14.63	0	0	0	0	0	0	0	0	0	0	-25.42651305	4.604601012	0
14.74	0	0	0	0	0	0	0	0	0	0	-24.11220833	5.106637791	0
14.87	0	0	0	0	0	0	0	0	0	0	-21.49571072	5.898939354	0
14.99	0	0	0	0	0	0	0	0	0	0	-17.75142424	5.986420063	0
15.11	0	0	0	0	0	0	0	0	0	0	-15.71310942	6.332272027	0
15.23	0	0	0	0	0	0	0	0	0	0	-9.907029689	5.332844964	0
15.34	0	0	0	0	0	0	0	0	0	0	-7.361030589	5.522039777	0
15.47	0	0	0	0	0	0	0	0	0	0	-6.438935719	5.556847766	0
15.59	0	0	0	0	0	0	0	0	0	0	-4.614926414	5.80605189	0
15.7	0	0	0	0	0	0	0	0	0	0	-2.249600484	5.615011535	0
15.83	0	0	0	0	0	0	0	0	0	0	-0.213746682	5.412211431	0
15.95	0	0	0	0	0	0	0	0	0	0	1.689078586	5.441474011	0
16.06	0	0	0	0	0	0	0	0	0	0	3.449700922	5.696081727	0
16.19	0	0	0	0	0	0	0	0	0	0	4.638733954	5.692566638	0
16.31	0	0	0	0	0	0	0	0	0	0	6.20815252	5.772242422	0
16.42	0	0	0	0	0	0	0	0	0	0	7.520301954	5.576734443	0
16.54	0	0	0	0	0	0	0	0	0	0	8.516553756	5.265754092	0
16.67	0	0	0	0	0	0	0	0	0	0	8.959776296	4.867156481	0
16.78	0	0	0	0	0	0	0	0	0	0	8.646020608	4.502358154	0
16.91	0	0	0	0	0	0	0	0	0	0	7.778937654	4.234678337	0
17.02	0	0	0	0	0	0	0	0	0	0	6.922568197	3.961982515	0
17.15	0	0	0	0	0	0	0	0	0	0	4.845010601	4.430426798	0
17.27	0	0	0	0	0	0	0	0	0	0	3.073257182	4.248489681	0
17.38	0	0	0	0	0	0	0	0	0	0	0.147377119	3.717320563	0
17.5	0	0	0	0	0	0	0	0	0	0	-0.428137838	3.608318414	0
17.63	0	0	0	0	0	0	0	0	0	0	-2.720385859	4.340257946	0
17.75	0	0	0	0	0	0	0	0	0	0	-5.659499272	3.806149516	0
17.87	0	0	0	0	0	0	0	0	0	0	-8.578315901	4.456903376	0
17.98	0	0	0	0	0	0	0	0	0	0	-12.43183236	4.725093648	0
18.1	0	0	0	0	0	0	0	0	0	0	-17.70043557	3.95214005	0
18.22	0	0	0	0	0	0	0	0	0	0	-19.01046552	4.586331084	0
18.34	0	0	0	0	0	0	0	0	0	0	-23.89362851	4.175171585	0
18.47	0	0	0	0	0	0	0	0	0	0	-25.93472193	3.855661656	0
18.59	0	0	0	0	0	0	0	0	0	0	-26.87182162	3.391576593	0
18.7	0	0	0	0	0	0	0	0	0	0	-28.55159145	3.561697838	0
18.83	0	0	0	0	0	0	0	0	0	0	-30.39092331	3.756608899	0
18.95	0	0	0	0	0	0	0	0	0	0	-30.72513641	3.716039902	0
19.06	0	0	0	0	0	0	0	0	0	0	-30.92186863	3.572433991	0
19.18	0	0	0	0	0	0	0	0	0	0	-30.8103614	3.244024237	0
19.31	0	0	0	0	0	0	0	0	0	0	-31.59548134	2.869821392	0
19.42	0	0	0	0	0	0	0	0	0	0	-31.41422892	2.60184562	0
19.54	0	0	0	0	0	0	0	0	0	0	-29.06658238	3.052723246	0
19.66	0	0	0	0	0	0	0	0	0	0	-27.05687121	1.959606557	0
19.79	0	0	0	0	0	0	0	0	0	0	-22.51152797	3.515663095	0
19.91	0	0	0	0	0	0	0	0	0	0	-19.31801546	4.752413743	0
20.03	0	0	0	0	0	0	0	0	0	0	-16.47733576	4.843470048	0
20.14	0	0	0	0	0	0	0	0	0	0	-13.98305575	5.079722471	0
20.27	0	0	0	0	0	0	0	0	0	0	-10.73486761	5.271551842	0
20.39	0	0	0	0	0	0	0	0	0	0	-7.320205286	6.418150734	0
20.5	0	0	0	0	0	0	0	0	0	0	-5.698454988	7.042944909	0
20.62	0	0	0	0	0	0	0	0	0	0	-3.344251573	8.062830917	0
20.75	0	0	0	0	0	0	0	0	0	0	-0.49933325	7.430536256	0
20.86	0	0	0	0	0	0	0	0	0	0	1.841166166	7.382276245	0
20.98	0	0	0	0	0	0	0	0	0	0	3.314220258	7.398702653	0
21.11	0	0	0	0	0	0	0	0	0	0	4.613263705	7.35269728	0
21.22	0	0	0	0	0	0	0	0	0	0	6.73998856	7.394983313	0
21.35	0	0	0	0	0	0	0	0	0	0	7.964358368	7.415522414	0
21.47	0	0	0	0	0	0	0	0	0	0	9.489533817	7.145677485	0
21.59	0	0	0	0	0	0	0	0	0	0	10.63638273	6.573138909	0
21.71	0	0	0	0	0	0	0	0	0	0	10.98986704	5.922817651	0
21.82	0	0	0	0	0	0	0	0	0	0	11.68453883	5.426502819	0
21.95	0	0	0	0	0	0	0	0	0	0	11.78185831	4.985045817	0
22.06	0	0	0	0	0	0	0	0	0	0	11.6722611	4.58488878	0
22.18	0	0	0	0	0	0	0	0	0	0	11.3549463	4.267444376	0
22.31	0	0	0	0	0	0	0	0	0	0	10.5534975	3.776580291	0
22.42	0	0	0	0	0	0	0	0	0	0	9.908933313	3.441600595	0
22.55	0	0	0	0	0	0	0	0	0	0	8.541246534	2.906027117	0
22.66	0	0	0	0	0	0	0	0	0	0	7.294275269	2.565651668	0
22.78	0	0	0	0	0	0	0	0	0	0	6.426208955	2.170110327	0
22.91	0	0	0	0	0	0	0	0	0	0	6.012406879	2.042936605	0
23.02	0	0	0	0	0	0	0	0	0	0	4.533822263	2.0574115	0
23.15	0	0	0	0	0	0	0	0	0	0	2.192178568	1.498491205	0
23.26	0	0	0	0	0	0	0	0	0	0	0.181304119	1.515948732	0
23.38	0	0	0	0	0	0	0	0	0	0	-0.662296974	1.953664052	0
23.5	0	0	0	0	0	0	0	0	0	0	-2.281324072	3.12137461	0
23.62	0	0	0	0	0	0	0	0	0	0	-3.223776668	3.073256435	0
